HIERARCHY
ROOT Hips
{
	OFFSET 0.000000 100.481300 0.000000
	CHANNELS 6 Xposition Yposition Zposition Xrotation Yrotation Zrotation 
	JOINT Spine
	{
		OFFSET -0.279200 12.230698 -2.892100
		CHANNELS 3 Xrotation Yrotation Zrotation
		JOINT Spine1
		{
			OFFSET -0.232667 10.192268 -1.242267
			CHANNELS 3 Xrotation Yrotation Zrotation
			JOINT Spine1_split
			{
				OFFSET -0.232667 10.192268 -1.242267
				CHANNELS 3 Xrotation Yrotation Zrotation
				JOINT Spine2
				{
					OFFSET -0.232667 10.192268 -1.242267
					CHANNELS 3 Xrotation Yrotation Zrotation
					JOINT Neck
					{
						OFFSET -0.418800 17.814194 8.416900
						CHANNELS 3 Xrotation Yrotation Zrotation
						JOINT Head
						{
							OFFSET 0.000000 7.031097 3.806800
							CHANNELS 3 Xrotation Yrotation Zrotation
							JOINT HeadTop_End
							{
								OFFSET 0.000000 24.646606 12.978600
								CHANNELS 3 Xrotation Yrotation Zrotation
								End Site
								{
									OFFSET 0.000000 0.000000 0.000000
								}
							}
						}
					}
					JOINT LeftShoulder
					{
						OFFSET 8.476499 7.247704 -3.868750
						CHANNELS 3 Xrotation Yrotation Zrotation
						JOINT LeftShoulder_split
						{
							OFFSET 8.476499 7.247704 -3.868750
							CHANNELS 3 Xrotation Yrotation Zrotation
							JOINT LeftArm
							{
								OFFSET 9.308998 -2.777710 0.208600
								CHANNELS 3 Xrotation Yrotation Zrotation
								JOINT LeftForeArm
								{
									OFFSET 29.972298 0.000000 0.000000
									CHANNELS 3 Xrotation Yrotation Zrotation
									JOINT LeftHand
									{
										OFFSET 26.026505 0.000000 0.000000
										CHANNELS 3 Xrotation Yrotation Zrotation
										JOINT LeftHandThumb1
										{
											OFFSET 12.240501 -7.147949 9.207150
											CHANNELS 3 Xrotation Yrotation Zrotation
											JOINT LeftHandThumb2
											{
												OFFSET 4.138618 -2.389435 2.389433
												CHANNELS 3 Xrotation Yrotation Zrotation
												JOINT LeftHandThumb3
												{
													OFFSET 2.726913 -1.574387 1.574386
													CHANNELS 3 Xrotation Yrotation Zrotation
													JOINT LeftHandThumb4
													{
														OFFSET 3.941010 -2.275345 2.275342
														CHANNELS 3 Xrotation Yrotation Zrotation
														End Site
														{
															OFFSET 0.000000 0.000000 0.000000
														}
													}
												}
											}
										}
										JOINT LeftHandIndex1
										{
											OFFSET 24.424698 -1.985611 5.953459
											CHANNELS 3 Xrotation Yrotation Zrotation
											JOINT LeftHandIndex2
											{
												OFFSET 6.426697 0.000000 0.000000
												CHANNELS 3 Xrotation Yrotation Zrotation
												JOINT LeftHandIndex3
												{
													OFFSET 5.337898 0.000000 0.000000
													CHANNELS 3 Xrotation Yrotation Zrotation
													JOINT LeftHandIndex4
													{
														OFFSET 4.409401 0.000000 0.000000
														CHANNELS 3 Xrotation Yrotation Zrotation
														End Site
														{
															OFFSET 0.000000 0.000000 0.000000
														}
													}
												}
											}
										}
										JOINT LeftHandMiddle1
										{
											OFFSET 23.810104 0.000000 0.000000
											CHANNELS 3 Xrotation Yrotation Zrotation
											JOINT LeftHandMiddle2
											{
												OFFSET 7.176498 0.000000 0.000000
												CHANNELS 3 Xrotation Yrotation Zrotation
												JOINT LeftHandMiddle3
												{
													OFFSET 6.774902 0.000000 0.000000
													CHANNELS 3 Xrotation Yrotation Zrotation
													JOINT LeftHandMiddle4
													{
														OFFSET 5.403328 0.000000 0.000000
														CHANNELS 3 Xrotation Yrotation Zrotation
														End Site
														{
															OFFSET 0.000000 0.000000 0.000000
														}
													}
												}
											}
										}
										JOINT LeftHandRing1
										{
											OFFSET 22.908401 -0.839279 -6.020567
											CHANNELS 3 Xrotation Yrotation Zrotation
											JOINT LeftHandRing2
											{
												OFFSET 6.337502 0.000000 0.000000
												CHANNELS 3 Xrotation Yrotation Zrotation
												JOINT LeftHandRing3
												{
													OFFSET 5.779297 0.000000 0.000000
													CHANNELS 3 Xrotation Yrotation Zrotation
													JOINT LeftHandRing4
													{
														OFFSET 4.965698 0.000000 0.000000
														CHANNELS 3 Xrotation Yrotation Zrotation
														End Site
														{
															OFFSET 0.000000 0.000000 0.000000
														}
													}
												}
											}
										}
										JOINT LeftHandPinky1
										{
											OFFSET 20.037003 -1.530319 -10.950146
											CHANNELS 3 Xrotation Yrotation Zrotation
											JOINT LeftHandPinky2
											{
												OFFSET 5.254700 0.000000 0.000000
												CHANNELS 3 Xrotation Yrotation Zrotation
												JOINT LeftHandPinky3
												{
													OFFSET 4.810204 0.000000 0.000000
													CHANNELS 3 Xrotation Yrotation Zrotation
													JOINT LeftHandPinky4
													{
														OFFSET 3.647202 0.000000 0.000000
														CHANNELS 3 Xrotation Yrotation Zrotation
														End Site
														{
															OFFSET 0.000000 0.000000 0.000000
														}
													}
												}
											}
										}
									}
								}
							}
						}
					}
					JOINT RightShoulder
					{
						OFFSET -7.570500 7.247704 -3.868750
						CHANNELS 3 Xrotation Yrotation Zrotation
						JOINT RightShoulder_split
						{
							OFFSET -7.570500 7.247704 -3.868750
							CHANNELS 3 Xrotation Yrotation Zrotation
							JOINT RightArm
							{
								OFFSET -9.308998 -2.777710 0.208500
								CHANNELS 3 Xrotation Yrotation Zrotation
								JOINT RightForeArm
								{
									OFFSET -29.972300 0.000000 0.000000
									CHANNELS 3 Xrotation Yrotation Zrotation
									JOINT RightHand
									{
										OFFSET -26.026505 0.000000 0.000000
										CHANNELS 3 Xrotation Yrotation Zrotation
										JOINT RightHandThumb1
										{
											OFFSET -12.240601 -7.148026 9.207092
											CHANNELS 3 Xrotation Yrotation Zrotation
											JOINT RightHandThumb2
											{
												OFFSET -4.138618 -2.389435 2.389433
												CHANNELS 3 Xrotation Yrotation Zrotation
												JOINT RightHandThumb3
												{
													OFFSET -2.726974 -1.574417 1.574421
													CHANNELS 3 Xrotation Yrotation Zrotation
													JOINT RightHandThumb4
													{
														OFFSET -3.941010 -2.275345 2.275343
														CHANNELS 3 Xrotation Yrotation Zrotation
														End Site
														{
															OFFSET 0.000000 0.000000 0.000000
														}
													}
												}
											}
										}
										JOINT RightHandIndex1
										{
											OFFSET -24.424698 -1.985657 5.953444
											CHANNELS 3 Xrotation Yrotation Zrotation
											JOINT RightHandIndex2
											{
												OFFSET -6.426697 0.000000 0.000000
												CHANNELS 3 Xrotation Yrotation Zrotation
												JOINT RightHandIndex3
												{
													OFFSET -5.337898 0.000000 0.000000
													CHANNELS 3 Xrotation Yrotation Zrotation
													JOINT RightHandIndex4
													{
														OFFSET -4.409401 0.000000 0.000000
														CHANNELS 3 Xrotation Yrotation Zrotation
														End Site
														{
															OFFSET 0.000000 0.000000 0.000000
														}
													}
												}
											}
										}
										JOINT RightHandMiddle1
										{
											OFFSET -23.810097 0.000000 0.000000
											CHANNELS 3 Xrotation Yrotation Zrotation
											JOINT RightHandMiddle2
											{
												OFFSET -7.176498 0.000000 0.000000
												CHANNELS 3 Xrotation Yrotation Zrotation
												JOINT RightHandMiddle3
												{
													OFFSET -6.774902 0.000000 0.000000
													CHANNELS 3 Xrotation Yrotation Zrotation
													JOINT RightHandMiddle4
													{
														OFFSET -5.403328 0.000000 0.000000
														CHANNELS 3 Xrotation Yrotation Zrotation
														End Site
														{
															OFFSET 0.000000 0.000000 0.000000
														}
													}
												}
											}
										}
										JOINT RightHandRing1
										{
											OFFSET -22.908302 -0.839325 -6.020576
											CHANNELS 3 Xrotation Yrotation Zrotation
											JOINT RightHandRing2
											{
												OFFSET -6.337502 0.000000 0.000000
												CHANNELS 3 Xrotation Yrotation Zrotation
												JOINT RightHandRing3
												{
													OFFSET -5.779297 0.000000 0.000000
													CHANNELS 3 Xrotation Yrotation Zrotation
													JOINT RightHandRing4
													{
														OFFSET -4.965698 0.000000 0.000000
														CHANNELS 3 Xrotation Yrotation Zrotation
														End Site
														{
															OFFSET 0.000000 0.000000 0.000000
														}
													}
												}
											}
										}
										JOINT RightHandPinky1
										{
											OFFSET -20.037003 -1.530334 -10.950259
											CHANNELS 3 Xrotation Yrotation Zrotation
											JOINT RightHandPinky2
											{
												OFFSET -5.254700 0.000000 0.000000
												CHANNELS 3 Xrotation Yrotation Zrotation
												JOINT RightHandPinky3
												{
													OFFSET -4.810204 0.000000 0.000000
													CHANNELS 3 Xrotation Yrotation Zrotation
													JOINT RightHandPinky4
													{
														OFFSET -3.647202 0.000000 0.000000
														CHANNELS 3 Xrotation Yrotation Zrotation
														End Site
														{
															OFFSET 0.000000 0.000000 0.000000
														}
													}
												}
											}
										}
									}
								}
							}
						}
					}
				}
			}
		}
	}
	JOINT LeftUpLeg
	{
		OFFSET 15.427100 -6.655098 0.678600
		CHANNELS 3 Xrotation Yrotation Zrotation
		JOINT LeftLeg
		{
			OFFSET 4.081073 -39.591068 13.024000
			CHANNELS 3 Xrotation Yrotation Zrotation
			JOINT LeftFoot
			{
				OFFSET -4.081074 -37.707932 -15.979700
				CHANNELS 3 Xrotation Yrotation Zrotation
				JOINT LeftToeBase
				{
					OFFSET 5.346399 -15.068900 20.645000
					CHANNELS 3 Xrotation Yrotation Zrotation
					JOINT LeftToe_End
					{
						OFFSET 2.754700 0.931300 11.300900
						CHANNELS 3 Xrotation Yrotation Zrotation
						End Site
						{
							OFFSET 0.000000 0.000000 0.000000
						}
					}
				}
			}
		}
	}
	JOINT RightUpLeg
	{
		OFFSET -15.569500 -6.655098 0.678600
		CHANNELS 3 Xrotation Yrotation Zrotation
		JOINT RightLeg
		{
			OFFSET -4.081825 -39.591045 13.023800
			CHANNELS 3 Xrotation Yrotation Zrotation
			JOINT RightFoot
			{
				OFFSET 4.081824 -37.707954 -15.979600
				CHANNELS 3 Xrotation Yrotation Zrotation
				JOINT RightToeBase
				{
					OFFSET -5.346400 -15.068900 20.645000
					CHANNELS 3 Xrotation Yrotation Zrotation
					JOINT RightToe_End
					{
						OFFSET -2.754700 0.931300 11.300900
						CHANNELS 3 Xrotation Yrotation Zrotation
						End Site
						{
							OFFSET 0.000000 0.000000 0.000000
						}
					}
				}
			}
		}
	}
}
MOTION
Frames: 4
Frame Time: 0.016667
-144.079605 29.019791 16.030249 5.112685 2.596710 -39.527708 26.879313 -4.008362 -13.651357 4.579543 1.205235 -2.831997 0.000000 0.000000 0.000000 4.490620 1.286410 -2.943290 -2.042155 1.139533 0.937733 -3.993400 18.457116 0.270728 -0.000000 0.000001 -0.000000 -1.373419 -20.809893 -17.189984 0.000000 0.000000 0.000000 -48.855312 35.869114 -5.133224 -0.000026 -67.519562 -0.000045 -8.667139 25.097320 88.863527 -18.674871 -12.715892 12.000660 5.781734 26.667876 7.360266 -10.020034 -14.017845 7.739308 -0.000002 0.000001 -0.000000 -0.114402 -6.949164 -4.727150 0.000000 0.000002 -0.000000 0.033142 -0.622958 6.090738 0.000000 -0.000000 -0.000000 0.098866 -2.457608 0.172478 0.069074 0.897932 -8.797569 0.006117 0.267933 -2.615535 -0.000000 -0.000000 0.000001 0.130748 1.053432 3.316420 0.099480 1.076172 -10.562548 0.143891 1.291757 -12.711528 0.000000 -0.000000 -0.000001 -1.043236 17.733036 -1.993053 0.000107 0.035395 -0.345395 0.009301 0.330340 -3.225516 0.000000 0.000000 -0.000000 0.401288 16.298368 -0.998263 0.000000 0.000000 0.000000 -40.005238 -32.703970 -10.775236 0.000000 46.721527 0.000013 -50.663871 -2.035181 11.091356 -36.432864 17.171376 -23.039143 7.506153 -18.062835 -3.520389 -7.056231 3.101006 -14.195939 -0.000000 -0.000001 0.000000 0.815369 4.038548 -1.787526 0.000000 -0.000004 0.000092 0.007203 0.259246 -3.184062 -0.000001 0.000001 -0.000000 0.053663 -1.961512 -1.170903 0.000000 -0.001806 0.022153 0.073035 0.822383 -10.149064 0.000002 0.000002 0.000000 0.143740 -11.067566 0.271833 -0.000005 0.000004 0.000029 0.119085 1.047497 -12.970645 0.000000 -0.000000 0.000001 -0.350061 -18.063091 -1.651672 0.001508 -0.118473 1.454587 0.105086 0.984796 -12.181858 0.000004 -0.000001 0.000001 -124.447823 -5.080477 6.468952 25.217446 1.464710 4.122455 39.953314 -12.909986 37.217636 -7.908867 -0.000013 -0.000002 0.000003 0.000002 0.000001 -85.594223 -20.729571 -25.744820 120.392971 11.082479 -0.478042 -8.940223 28.805271 3.053792 -41.084206 -0.000004 0.000006 0.000000 -0.000000 -0.000000 
-143.518860 30.296501 14.229486 5.120094 2.586919 -40.501342 26.351886 -4.879553 -14.026307 4.544296 1.067061 -3.000538 0.000000 0.000000 0.000000 4.469507 1.152595 -3.102254 -2.049336 1.250604 0.923230 -3.430783 19.437303 0.140223 -0.000001 -0.000002 -0.000000 -0.738570 -20.006918 -16.433095 0.000000 0.000000 0.000000 -50.129245 35.122247 -5.603044 0.000033 -67.864275 0.000043 -7.308378 26.200069 89.911654 -18.673720 -12.714325 12.002648 5.779684 26.667101 7.363956 -10.020032 -14.017844 7.739308 -0.000001 0.000001 -0.000001 -0.114869 -6.948371 -4.729060 0.000000 -0.000003 -0.000004 0.033454 -0.625853 6.119074 0.000000 -0.000002 -0.000000 0.098905 -2.457256 0.173012 0.068625 0.895027 -8.768866 0.005850 0.262088 -2.558342 -0.000001 0.000002 -0.000001 0.130716 1.054181 3.317229 0.098834 1.072684 -10.528034 0.141863 1.282741 -12.621325 0.000000 0.000001 -0.000001 -1.043703 17.733756 -1.992107 0.000108 0.035292 -0.344534 0.008962 0.324260 -3.165827 0.000000 -0.000000 -0.000000 0.572093 17.177625 -1.647709 0.000000 0.000000 0.000000 -40.220689 -36.620551 -13.906586 0.000003 47.792831 -0.000006 -49.852673 -3.546392 10.728619 -36.512576 17.028100 -23.229349 7.528398 -18.244747 -3.533567 -7.056230 3.101011 -14.195939 -0.000000 -0.000000 -0.000000 0.824676 4.106039 -1.666741 0.000002 -0.000003 -0.000004 0.007197 0.259117 -3.182513 0.000002 -0.000002 0.000001 0.055116 -1.872153 -1.095908 -0.000004 -0.001838 0.022638 0.072358 0.818630 -10.101960 -0.000001 0.000002 -0.000001 0.147324 -10.931667 0.311338 -0.000001 -0.000005 -0.000002 0.116606 1.036650 -12.834176 -0.000001 -0.000003 -0.000000 -0.366990 -18.002622 -1.683530 0.001722 -0.126643 1.554744 0.101840 0.969612 -11.991073 0.000001 -0.000002 -0.000001 -121.868306 -4.523168 6.198137 22.144430 0.135663 3.824100 42.433524 -11.635485 37.602790 -8.731672 0.000040 0.000004 -0.000001 0.000001 -0.000003 -86.093770 -22.333472 -23.829953 117.639504 9.120836 -1.226657 -8.244881 28.468445 5.433227 -39.838772 -0.000014 -0.000001 0.000000 -0.000000 -0.000000 
-142.722229 31.621498 13.254578 5.733681 2.349385 -41.386766 25.786613 -5.585761 -14.295186 4.488208 0.843244 -3.085103 0.000000 0.000000 0.000000 4.437028 0.931091 -3.173855 -2.023570 1.363335 0.939922 -3.072394 20.274373 0.360036 -0.000000 0.000003 0.000002 -0.122288 -19.220881 -15.638242 0.000000 0.000000 0.000000 -51.499459 33.851640 -6.175598 0.000030 -67.064958 0.000034 -6.088716 26.491507 90.582365 -18.672561 -12.713382 12.004489 5.777678 26.666346 7.367558 -10.020034 -14.017845 7.739307 0.000000 0.000001 -0.000000 -0.115384 -6.947566 -4.731091 -0.000000 -0.000003 0.000000 0.033519 -0.626472 6.125288 0.000000 0.000002 0.000000 0.098951 -2.456929 0.173603 0.068520 0.894347 -8.762167 0.005791 0.260717 -2.545002 0.000000 -0.000001 -0.000000 0.130687 1.054921 3.318095 0.098682 1.071878 -10.519947 0.141392 1.280632 -12.600260 0.000000 -0.000001 -0.000001 -1.044128 17.734284 -1.991128 0.000105 0.035240 -0.343835 0.008880 0.322778 -3.151490 0.000000 0.000001 -0.000001 0.605462 17.139991 -2.151149 0.000000 0.000000 0.000000 -40.578478 -39.839302 -15.876109 0.000003 48.762438 -0.000001 -48.772482 -4.582366 9.448634 -36.561986 16.901313 -23.361327 7.551353 -18.432384 -3.547084 -7.056232 3.101007 -14.195940 -0.000000 -0.000001 0.000000 0.833848 4.174742 -1.543928 -0.000000 -0.000001 0.000002 0.007192 0.259000 -3.180917 0.000001 0.000000 0.000001 0.056360 -1.781222 -1.019680 0.000001 -0.001897 0.023240 0.071673 0.814770 -10.054034 -0.000003 -0.000001 0.000001 0.150810 -10.793494 0.351481 0.000003 -0.000010 0.000008 0.114102 1.025645 -12.695391 0.000001 -0.000002 0.000002 -0.384133 -17.941085 -1.715919 0.001953 -0.134939 1.656612 0.098580 0.954153 -11.797057 -0.000001 0.000001 -0.000003 -122.481083 -4.332582 5.699532 24.908491 1.103088 3.455367 40.856853 -11.509115 39.254695 -9.310711 -0.000002 -0.000010 0.000001 0.000001 -0.000000 -84.079437 -23.487176 -22.220993 114.785045 9.076025 -1.112492 -9.774066 28.556189 6.853167 -38.670093 -0.000009 -0.000007 -0.000000 0.000000 0.000000 
-141.747253 33.060226 12.792402 6.605875 1.927595 -42.556081 25.306184 -6.190450 -14.354776 4.429974 0.562697 -3.087449 0.000000 0.000000 0.000000 4.399094 0.647813 -3.172078 -1.978529 1.469750 0.973268 -2.886838 20.911703 0.815777 -0.000000 -0.000000 -0.000001 0.465879 -18.467175 -14.809583 0.000000 0.000000 0.000000 -53.117329 32.371026 -6.476309 -0.000006 -65.498222 -0.000005 -5.129237 26.194769 91.077219 -18.671429 -12.712481 12.006317 5.775792 26.665620 7.371033 -10.020033 -14.017839 7.739310 -0.000000 -0.000000 -0.000000 -0.115931 -6.946751 -4.733156 0.000001 -0.000000 -0.000004 0.033435 -0.625697 6.117622 0.000000 0.000000 -0.000000 0.098998 -2.456613 0.174216 0.068641 0.895128 -8.769936 0.005861 0.262306 -2.560516 -0.000000 -0.000002 0.000001 0.130658 1.055650 3.318957 0.098857 1.072813 -10.529233 0.141939 1.283082 -12.624698 0.000001 0.000001 -0.000000 -1.044499 17.734526 -1.990191 0.000105 0.035170 -0.343287 0.008967 0.324372 -3.166980 -0.000000 0.000003 0.000000 0.420650 16.309588 -2.316457 0.000000 0.000000 0.000000 -40.918557 -42.271146 -17.103709 -0.000004 49.709806 0.000014 -47.434766 -5.281590 7.361193 -36.582176 16.789705 -23.436792 7.574911 -18.625461 -3.560981 -7.056230 3.101007 -14.195939 0.000000 0.000001 0.000001 0.842835 4.244607 -1.419229 0.000001 0.000004 0.000001 0.007179 0.258844 -3.179263 0.000002 -0.000002 -0.000000 0.057368 -1.688878 -0.942283 -0.000005 -0.001956 0.023983 0.070987 0.810875 -10.005384 0.000002 -0.000001 0.000003 0.154171 -10.653141 0.392194 0.000002 0.000003 -0.000001 0.111586 1.014451 -12.554408 0.000003 -0.000001 0.000001 -0.401484 -17.878584 -1.748772 0.002199 -0.143351 1.760082 0.095325 0.938439 -11.599979 -0.000001 -0.000001 0.000001 -125.503497 -4.520186 5.072715 32.467690 3.731655 3.130898 36.226999 -12.284970 41.918640 -9.566004 -0.000009 -0.000009 0.000001 0.000002 -0.000000 -80.713069 -24.697544 -20.313770 111.634313 9.925550 -0.528247 -12.246859 28.820219 7.775703 -37.575490 0.000012 -0.000002 -0.000001 -0.000000 -0.000000 
